HIERARCHY
ROOT Hips
{
  OFFSET 196.326 95.9168 97.7182
  CHANNELS 6 Xposition Yposition Zposition Zrotation Xrotation Yrotation
  JOINT LeftUpLeg
  {
    OFFSET 8.64259 1.95398 -2.38835
    CHANNELS 3 Zrotation Xrotation Yrotation
    JOINT LeftLeg
    {
      OFFSET 43.7702 0 0
      CHANNELS 3 Zrotation Xrotation Yrotation
      JOINT LeftFoot
      {
        OFFSET 40.6238 0 0
        CHANNELS 3 Zrotation Xrotation Yrotation
        JOINT LeftToeBase
        {
          OFFSET 12.7242 0 0
          CHANNELS 3 Zrotation Xrotation Yrotation
          End Site
          {
            OFFSET 0 0 0
          }
        }
      }
    }
  }
  JOINT RightUpLeg
  {
    OFFSET -8.2249 1.95398 -2.59336
    CHANNELS 3 Zrotation Xrotation Yrotation
    JOINT RightLeg
    {
      OFFSET 43.5653 0 0
      CHANNELS 3 Zrotation Xrotation Yrotation
      JOINT RightFoot
      {
        OFFSET 40.6238 0 0
        CHANNELS 3 Zrotation Xrotation Yrotation
        JOINT RightToeBase
        {
          OFFSET 12.7242 0 0
          CHANNELS 3 Zrotation Xrotation Yrotation
          End Site
          {
            OFFSET 0 0 0
          }
        }
      }
    }
  }
  JOINT Spine
  {
    OFFSET 0.165834 0.87714 6.61349
    CHANNELS 3 Zrotation Xrotation Yrotation
    JOINT Spine1
    {
      OFFSET 7.38963 1.71661e-005 0
      CHANNELS 3 Zrotation Xrotation Yrotation
      JOINT Spine2
      {
        OFFSET 11.9445 1.14441e-005 0
        CHANNELS 3 Zrotation Xrotation Yrotation
        JOINT Spine3
        {
          OFFSET 14.7254 4.19617e-005 0
          CHANNELS 3 Zrotation Xrotation Yrotation
          JOINT Spine4
          {
            OFFSET 10.9679 0 0
            CHANNELS 3 Zrotation Xrotation Yrotation
            JOINT RightShoulder
            {
              OFFSET 2.46616 -1.6653 3.69651
              CHANNELS 3 Zrotation Xrotation Yrotation
              JOINT RightArm
              {
                OFFSET 13.0012 0 0
                CHANNELS 3 Zrotation Xrotation Yrotation
                JOINT RightForeArm
                {
                  OFFSET 28.7848 1.52588e-005 0
                  CHANNELS 3 Zrotation Xrotation Yrotation
                  JOINT RightHand
                  {
                    OFFSET 26.5688 1.52588e-005 0
                    CHANNELS 3 Zrotation Xrotation Yrotation
                    End Site
                    {
                      OFFSET 0 0 0
                    }
                  }
                }
              }
            }
            JOINT LeftShoulder
            {
              OFFSET 2.38034 -1.29275 -3.75231
              CHANNELS 3 Zrotation Xrotation Yrotation
              JOINT LeftArm
              {
                OFFSET 16.3182 6.10351e-005 0
                CHANNELS 3 Zrotation Xrotation Yrotation
                JOINT LeftForeArm
                {
                  OFFSET 27.0901 0 0
                  CHANNELS 3 Zrotation Xrotation Yrotation
                  JOINT LeftHand
                  {
                    OFFSET 24.5451 1.52588e-005 0
                    CHANNELS 3 Zrotation Xrotation Yrotation
                    End Site
                    {
                      OFFSET 0 0 0
                    }
                  }
                }
              }
            }
            JOINT Neck
            {
              OFFSET 5.0226 -0.0266342 0
              CHANNELS 3 Zrotation Xrotation Yrotation
              JOINT Head
              {
                OFFSET 6.69363 2.86102e-005 0
                CHANNELS 3 Zrotation Xrotation Yrotation
                End Site
                {
                  OFFSET 0 0 0
                }
              }
            }
          }
        }
      }
    }
  }
}
MOTION
Frames:	18
Frame Time:	0.0416667
32.3674 94.0728 -28.9982 81.1914 -44.9717 79.6629 -175.349 0.180693 90.2234 -45.8698 27.0845 0.561539 30.9626 -16.6329 -4.90717 24.8589 -2.7206 -9.66292 -178.444 32.2518 92.6726 -23.6789 3.95356 -0.34286 54.031 1.54917 1.50866 19.39 -3.62378 20.776 -0.877559 7.37777 -89.3432 12.1263 -1.43383 1.46838 0.4552 -1.36783 1.53004 -22.0828 -1.80883 0.969552 -2.07018 -1.80882 0.969548 79.9632 -49.7137 -116.061 41.3655 -18.9922 44.1379 -11.2788 2.09364 -83.9603 -21.0777 -0.818398 -0.530591 -96.6449 -37.7472 64.443 -28.194 0.845007 9.0309 14.8603 -11.8633 -123.535 31.5954 3.35315 6.892 16.9253 0.548887 -2.27849 -1.2736 1.31478 2.71378 
25.8745 95.457 -35.4751 77.3233 -44.8256 76.8726 -176.149 -0.897535 87.4463 -34.2426 30.581 0.16968 36.4974 -13.7214 -1.71673 34.3245 6.24971 -13.732 -178.958 32.5339 90.5208 -11.6856 -1.76275 0.84749 48.3426 3.45709 3.16533 35.5318 0.269549 15.8861 -0.978196 7.17098 -89.4718 12.5416 -1.69171 1.25216 0.871107 -1.63495 1.32539 -21.6711 -1.98979 0.685734 -1.65846 -1.98982 0.685718 81.4974 -48.088 -114.405 42.8704 -18.3614 47.2989 -12.3184 3.82576 -87.0394 -19.4825 -0.68747 -0.97834 -97.0068 -37.9727 63.9335 -26.6154 -2.17945 7.73089 13.3975 -13.3087 -132.936 29.4861 3.14569 6.9308 19.8517 1.28823 -1.20631 -3.37418 1.68165 2.24054 
19.2257 96.1589 -41.9613 73.0936 -46.5768 73.833 -175.535 -0.833183 85.8105 -24.2357 28.3979 -0.788756 42.0452 -10.0085 1.90107 48.2563 18.9797 -10.5035 -177.109 35.8426 89.7116 -17.6092 -3.1838 -1.22013 52.6391 2.15649 1.92554 45.3378 2.10806 13.0514 -0.830864 6.95144 -89.5165 12.978 -1.4174 1.1395 1.30727 -1.36588 1.20077 -21.2324 -1.69434 0.660766 -1.21978 -1.69433 0.660763 80.672 -47.8333 -115.758 41.4921 -16.4127 48.2773 -11.7988 5.71497 -90.3508 -16.2517 -0.425112 -2.16035 -95.9689 -38.0517 65.6944 -26.9849 0.86901 6.82997 14.3511 -16.2828 -135.867 30.15 3.01668 6.25431 22.3326 1.80158 -0.5394 -4.45377 1.94527 1.62446 
11.9288 95.5409 -48.7328 71.6495 -48.7009 72.4752 -175.224 2.09948 84.2069 -21.6394 26.356 -1.62982 45.6727 -7.06412 6.24297 55.8787 24.9052 -13.3065 -175.745 38.1283 89.5093 -32.6481 -0.234895 -3.69699 57.129 0.520795 0.575513 51.6529 3.39696 14.2269 -0.532685 6.93751 -89.5101 13.002 -0.822205 1.07989 1.33086 -0.773848 1.11502 -21.2043 -1.10874 0.782864 -1.19165 -1.10872 0.782867 81.366 -47.832 -114.706 38.7614 -16.9144 43.9231 -11.9955 5.20744 -90.6203 -17.0159 -0.507096 -1.69866 -96.8554 -38.0376 64.2123 -27.8456 1.58646 8.53253 12.424 -13.5953 -132.145 28.9554 2.96153 6.48016 22.5285 1.49382 -0.809689 -3.95591 1.75604 2.06624 
4.71421 94.2275 -55.7703 75.7336 -50.0462 77.3644 -174.933 5.26561 84.7585 -26.5127 24.8122 -1.51702 52.8475 0.403139 13.5488 73.0342 35.2054 -21.8937 -176.683 35.8968 90.7193 -48.8013 4.89527 -4.30985 57.0652 -0.328924 -0.00718346 52.1746 3.37056 13.2322 -0.339772 7.18328 -89.6745 12.5089 -0.520126 0.7093 0.837853 -0.488397 0.731499 -21.6972 -0.709245 0.520196 -1.68459 -0.70925 0.520191 81.3483 -49.2299 -114.188 33.9612 -17.955 36.7894 -12.3324 4.16463 -88.7276 -17.5855 -0.592233 -1.22117 -98.2028 -38.7126 62.2777 -29.4212 3.23363 12.0544 13.4692 -11.3442 -121.717 30.9813 3.09242 6.23585 20.2093 0.670549 -1.51739 -2.4477 1.21882 2.51235 
-2.29951 92.4739 -62.6518 77.5638 -51.0377 80.7454 -174.468 13.1353 85.4932 -36.62 22.8556 -1.20375 61.1093 10.1756 20.5808 66.5325 31.4155 -19.2854 -178.536 33.0123 91.9384 -62.1434 9.66494 -4.35266 58.8316 -2.23844 -1.26827 46.5179 2.74587 17.7516 -0.0775663 7.26639 -89.9325 12.3409 -0.122077 0.148736 0.669958 -0.115412 0.153957 -21.8652 -0.161151 0.105167 -1.85255 -0.161135 0.105167 80.9444 -50.0357 -114.479 29.4227 -18.261 29.3269 -12.2865 4.92752 -89.1737 -16.8458 -0.685299 -0.372095 -99.0968 -40.4721 61.5888 -31.3329 5.40178 14.3002 13.7547 -7.91116 -108.883 32.7879 3.17401 5.90752 19.0311 0.0942551 -1.22121 -1.34723 0.588229 2.67884 
-9.60464 90.759 -68.7968 77.5462 -51.7819 79.3583 -174.261 21.6971 84.0073 -43.131 19.5296 -1.25757 62.7502 14.5605 25.2503 64.8139 28.9678 -22.0792 -179.096 29.4853 89.8392 -71.5464 10.2362 -5.40569 54.9071 -2.05662 -1.17378 48.2247 2.98433 16.2854 0.180777 7.28471 -89.7434 12.3033 0.48116 0.458064 0.632378 0.500832 0.436438 -21.9025 0.321239 0.581496 -1.88986 0.321247 0.581495 80.3155 -51.132 -114.984 24.5197 -19.7688 19.9843 -12.4299 3.41284 -89.3393 -19.3877 -0.87774 0.202979 -99.1612 -41.0633 61.7405 -33.8662 7.45111 16.465 13.9092 -4.12949 -93.6279 35.5307 3.52752 6.14007 20.1988 -1.1069 -1.80523 -2.67761 -0.394205 3.04545 
-16.5008 90.0508 -74.3393 82.2573 -51.9559 81.9425 -174.079 25.7615 83.4419 -45.4854 16.7261 -1.18466 62.8439 15.0106 26.1761 63.1508 26.1914 -26.3332 179.826 19.3416 87.4507 -72.9896 8.95184 -6.16861 51.7728 -1.46931 -0.775768 43.1569 2.1232 19.3145 0.367922 7.53814 -89.6437 11.7948 0.899287 0.614942 0.124011 0.925454 0.574763 -22.4115 0.672897 0.856776 -2.39882 0.672882 0.856776 80.7225 -49.6012 -114.981 23.4882 -22.2904 13.2883 -13.5803 4.36267 -93.5288 -20.8697 -1.06801 0.935779 -100.028 -41.2038 60.429 -37.051 8.88871 22.9514 8.38384 -3.53347 -84.785 37.2615 3.56907 5.76405 19.9728 -2.29616 -1.62368 -3.17983 -1.62484 2.79355 
-23.1473 91.1685 -79.7064 83.8602 -53.8395 82.6742 -174.229 28.379 84.3926 -41.4851 13.8307 -1.03032 62.1715 10.9274 20.4617 54.1134 19.8925 -26.6101 179.251 8.98639 85.3405 -65.1545 8.26119 -7.15569 48.1088 -0.231417 0.225533 34.5644 0.1118 20.9999 0.830439 7.54287 -89.6296 11.7848 1.82556 0.543724 0.114981 1.84773 0.462825 -22.4272 1.57775 1.06735 -2.4146 1.57776 1.06734 82.1055 -46.1468 -114.235 25.8899 -23.8955 8.63081 -14.7919 8.38333 -99.2194 -20.1596 -0.794759 -0.468306 -98.9739 -41.2532 62.122 -42.1281 11.5221 30.9977 7.44242 -3.2501 -84.9566 37.1269 3.4873 5.57325 18.138 -3.45218 -0.583949 -3.22573 -3.0839 2.79237 
-29.9551 93.6526 -84.9215 80.6724 -54.6823 80 -175.219 29.0796 86.88 -27.7398 14.9905 -0.801652 55.2058 1.51979 13.0186 44.457 13.0218 -28.207 178.282 1.89751 84.1807 -51.9495 8.38494 -7.61556 45.0817 1.07196 1.39344 25.3035 -2.11797 20.0412 1.31693 7.28659 -89.6508 12.2986 2.78283 0.383085 0.630602 2.79699 0.260133 -21.9247 2.53897 1.20222 -1.91207 2.53898 1.20224 83.4624 -45.3137 -112.431 26.0473 -26.8199 4.68931 -15.521 13.5917 -107.245 -18.5412 -1.13531 2.01972 -96.452 -39.4648 65.4551 -47.6788 13.3916 37.1627 7.48447 -3.9234 -86.8804 37.6012 3.14495 4.52195 15.9154 -5.35771 0.672839 -3.06958 -5.32071 2.10187 
-37.0217 96.2968 -90.549 78.0592 -52.7881 79.5257 -176.129 26.9313 90.4364 -7.82031 22.4061 -0.851218 43.4892 -8.97629 5.61464 35.5092 7.35297 -9.27834 177.721 -2.79132 86.0601 -40.0935 4.63418 -6.69801 44.7168 2.18201 2.3281 23.1724 -2.72159 20.7115 1.43404 7.11336 -89.8575 12.6519 2.91654 -0.0576136 0.984229 2.91117 -0.186043 -21.5757 2.79893 0.822307 -1.56309 2.79892 0.822287 83.757 -45.0034 -112.083 25.9101 -27.5415 3.52745 -16.6679 17.8602 -115.328 -16.1946 -1.20999 3.63566 -95.1573 -37.7277 66.9279 -51.0332 12.0416 41.9949 7.73401 -4.69472 -89.8631 37.7039 3.44491 5.30316 16.3273 -7.20746 1.9757 -4.72114 -7.52507 1.12445 
-44.1748 97.6861 -96.3157 72.7551 -50.4674 78.0214 -175.937 32.2763 93.4755 -8.39079 25.9704 -1.26548 46.0606 -7.54854 7.85628 47.4145 18.7307 -8.07761 178.519 -2.76124 89.702 -31.891 3.09808 -4.64231 46.2346 1.66529 1.80996 29.7602 -1.0541 20.3214 1.45507 6.76062 -90.1007 13.3637 2.8384 -0.56213 1.69562 2.81091 -0.686616 -20.8643 2.87602 0.317634 -0.851672 2.876 0.317621 84.0521 -45.6066 -111.392 26.4113 -29.1187 4.37419 -18.0184 17.9425 -121.517 -19.057 -1.5909 4.64599 -94.3152 -36.4547 67.8702 -52.6422 10.8397 44.5724 5.42695 -5.51424 -92.8562 38.796 3.59081 5.42657 17.6571 -9.57662 1.43905 -5.83115 -9.68264 1.13536 
-51.7895 97.8098 -102.512 71.2916 -49.0377 76.4716 -176.469 35.3284 93.4125 -20.1038 21.4856 -0.392001 48.7259 -4.94405 9.27157 49.3047 21.3864 -4.46121 178.478 -0.124442 90.0683 -30.8018 4.67043 -3.65783 49.8666 0.95878 1.09709 29.6409 -0.952488 17.4016 1.28828 6.72558 -90.0981 13.4314 2.50843 -0.516996 1.76276 2.48323 -0.626972 -20.7917 2.54776 0.26129 -0.779104 2.54776 0.261285 83.9162 -45.7688 -111.546 28.3388 -28.6592 7.03577 -18.1001 17.0785 -121.598 -20.3772 -1.6255 4.22696 -95.1163 -37.8999 67.0652 -50.9319 9.54237 43.983 8.45904 -5.29534 -93.7831 39.9142 3.17042 3.90477 18.5433 -11.5922 3.07804 -6.77284 -12.123 -1.26385 
-60.2769 96.9236 -109.034 76.1356 -49.6401 76.3262 -174.154 32.7515 90.5841 -34.6619 15.9404 -1.1168 49.9016 -4.33943 6.34302 44.0772 17.0481 0.666736 177.882 1.88632 88.6837 -33.7073 3.47712 -4.33751 54.2373 0.342916 0.513823 31.5819 -0.400196 14.0891 1.07868 7.1323 -89.7631 12.6107 2.25593 0.212504 0.941726 2.2631 0.11296 -21.6074 2.08771 0.880971 -1.59476 2.08772 0.880971 82.7965 -46.958 -112.848 29.3897 -24.9277 11.9417 -20.1898 16.6904 -116.329 -16.0538 -0.998856 2.13068 -96.0339 -39.0488 65.9792 -49.1663 9.72476 40.7496 8.9434 -5.04962 -92.7158 38.0547 2.96393 3.89968 16.4825 -13.1492 3.29606 -6.12155 -13.6817 -2.313 
-68.5353 94.8213 -115.381 76.8186 -49.1535 75.0639 -172.381 32.017 89.6549 -49.5659 17.6501 -1.68664 48.1362 -4.68657 10.2314 45.6825 18.1377 -2.58255 179.218 6.94192 89.3297 -36.3668 4.67312 -4.97803 56.5512 0.0340169 0.265627 52.5223 3.90424 16.419 0.781142 7.20086 -89.5657 12.4677 1.75872 0.665291 0.797796 1.78628 0.587218 -21.7432 1.47746 1.16318 -1.73056 1.47744 1.16317 82.0854 -48.8858 -113.209 29.3638 -22.5439 16.0803 -22.3002 14.2842 -108.434 -15.6886 -0.850154 1.26649 -97.0483 -40.3159 64.8204 -45.6648 9.63324 36.4771 9.9516 -4.71324 -93.3967 40.7808 3.63309 5.02786 16.0168 -13.8319 2.99454 -6.12401 -14.2554 -2.45422 
-76.3858 92.7146 -121.242 78.0663 -48.6673 75.1036 -170.534 28.3841 89.6577 -60.9532 16.1717 -1.48641 44.5297 -7.22972 8.06953 46.0773 17.6632 -6.9915 178.768 12.6295 90.221 -41.9596 8.80607 -3.86084 69.6167 -3.59532 -1.88823 56.5518 4.53564 15.2826 0.452647 7.29544 -89.4348 12.2769 1.16754 0.996537 0.60614 1.21026 0.944183 -21.9282 0.814088 1.30134 -1.91554 0.814122 1.30134 81.43 -49.9382 -113.795 30.0608 -20.6604 19.5691 -18.3523 7.89102 -101.394 -19.0297 -0.965158 0.936616 -98.5507 -41.3137 62.8166 -40.8948 9.09374 32.0729 10.7095 -5.12976 -95.6435 39.3109 3.49973 5.04512 16.5079 -13.7567 2.75055 -6.32279 -14.1162 -2.8577 
-83.5168 90.7654 -127.276 78.1953 -48.4416 76.1813 -170.583 22.898 91.0684 -66.7968 18.1451 -1.04239 42.7805 -7.90662 8.0353 41.1152 12.9106 -6.61538 178.904 20.4807 92.7289 -47.7383 13.4739 -2.96921 77.8828 -5.43757 -2.50452 51.3874 3.9006 18.062 0.18954 7.29223 -89.5654 12.2883 0.582917 0.803664 0.61731 0.617749 0.777225 -21.9166 0.314429 0.941687 -1.90397 0.314458 0.941692 80.1712 -50.6092 -115.4 29.6199 -19.419 22.797 -12.5769 5.59407 -91.8789 -19.3603 -0.899294 0.329427 -100.281 -42.4453 60.5719 -35.4241 8.9051 25.6086 10.2371 -5.20159 -96.9736 38.7885 3.53547 5.2568 17.1409 -12.2982 2.84884 -7.0577 -12.7225 -2.22334 
-90.2072 89.6361 -133.953 79.8849 -47.2173 78.2106 -172.591 15.0375 90.451 -66.8552 18.3764 -0.296705 40.9938 -9.28319 6.34894 38.737 10.3721 -9.62199 177.601 27.786 94.0241 -52.2785 15.5446 -1.18216 80.389 -6.50086 -2.82469 44.7639 2.42732 18.2031 -0.236764 7.35362 -89.6695 12.1667 -0.314252 0.694043 0.495533 -0.283409 0.707187 -22.0385 -0.508301 0.567518 -2.02582 -0.508316 0.567506 79.9339 -50.7466 -115.694 29.754 -20.096 25.6471 -12.461 2.0136 -83.5694 -19.7168 -0.900355 0.296858 -100.628 -42.5129 60.0632 -30.8198 9.67501 19.133 10.3309 -5.9202 -99.7095 37.5503 3.82419 6.39173 17.4672 -10.548 1.88994 -7.76866 -10.7464 -1.34751 
